<svg width="79" height="150" viewBox="0 0 79 150" fill="none" xmlns="http://www.w3.org/2000/svg">
<path fill-rule="evenodd" clip-rule="evenodd" d="M41.3428 0C37.7135 0 34.1312 0.486737 30.634 1.46311C27.0413 2.38837 23.6443 3.86469 20.5113 5.89191L20.3375 6.00435L20.1669 6.12165C16.7025 8.50341 13.8683 11.5516 11.7338 15.1287C9.04824 19.5083 7.99654 24.2842 7.99654 28.8681C7.99654 35.3614 10.3912 41.2167 14.7603 45.7114L14.3954 45.9616L14.2797 46.0476C10.2339 49.0538 6.87892 52.8515 4.21371 57.435C1.40726 62.1845 4.54007e-07 67.1588 0 72.3521C-5.47351e-07 78.613 1.6219 83.8727 4.88093 88.1094C8.11493 92.3136 12.1569 95.7084 17.0023 98.293C21.0737 100.543 25.3588 102.417 29.8572 103.917C34.3273 105.514 38.4231 107.11 42.145 108.705C45.854 110.294 48.9139 112.037 51.3323 113.93C53.6891 115.774 54.8573 118.165 54.8573 121.132C54.8573 123.397 54.3471 125.331 53.3482 126.95L53.3146 127.005L53.282 127.059C52.2505 128.796 50.9165 130.227 49.2777 131.355C47.5279 132.486 45.6261 133.314 43.5707 133.837L43.4774 133.861L43.3849 133.887C41.2098 134.5 38.9835 134.806 36.7048 134.806C29.5595 134.806 22.9847 132.288 16.9706 127.223L7.18382 138.845C15.6531 145.977 25.6235 150 36.7048 150C40.3341 150 43.9164 149.513 47.4136 148.537C51.0063 147.612 54.4033 146.135 57.5363 144.108L57.7101 143.996L57.8807 143.878C61.3451 141.497 64.1793 138.448 66.3138 134.871C68.9993 130.492 70.0511 125.716 70.0511 121.132C70.0511 114.639 67.6564 108.783 63.2873 104.289L63.6522 104.038L63.7679 103.952C67.8137 100.946 71.1687 97.1485 73.8339 92.565C76.6403 87.8155 78.0476 82.8411 78.0476 77.6479C78.0476 71.387 76.4257 66.1273 73.1667 61.8906C69.9327 57.6864 65.8907 54.2916 61.0453 51.707C56.9738 49.4572 52.6888 47.5825 48.1904 46.0828C43.7203 44.4863 39.6245 42.8904 35.9026 41.2953C32.1936 39.7057 29.1337 37.9627 26.7153 36.0701C24.3585 34.2256 23.1903 31.8354 23.1903 28.8681C23.1903 26.6028 23.7005 24.6693 24.6994 23.0499L24.733 22.9955L24.7656 22.9406C25.7971 21.2035 27.131 19.7728 28.7699 18.6451C30.5197 17.5136 32.4215 16.6864 34.4769 16.163L34.5701 16.1393L34.6627 16.1132C36.8378 15.5003 39.0641 15.1937 41.3428 15.1937C48.4881 15.1937 55.0629 17.7121 61.077 22.7765L70.8638 11.1547C62.3945 4.02267 52.4241 0 41.3428 0ZM49.48 95.3338L54.8128 91.677C57.0731 89.9753 59.0386 87.7838 60.7001 84.9262L60.7269 84.88L60.753 84.8358C62.2684 82.2713 62.8539 79.9464 62.8539 77.6479C62.8539 74.1265 61.9959 72.2881 61.1238 71.1543C59.2554 68.7255 56.9038 66.7179 53.8936 65.1123L53.7959 65.0602L53.6991 65.0067C50.4538 63.2132 47.0196 61.7081 43.3817 60.4955L43.2326 60.4458L43.0845 60.3929C38.3661 58.7078 33.9722 56.9983 29.9175 55.2605C29.4646 55.0664 29.0145 54.8684 28.5676 54.6662L23.2348 58.323C20.9745 60.0247 19.009 62.2162 17.3475 65.0738L17.3207 65.12L17.2946 65.1642C15.7792 67.7287 15.1937 70.0536 15.1937 72.3521C15.1937 75.8735 16.0517 77.7119 16.9238 78.8457C18.7922 81.2745 21.1438 83.2821 24.154 84.8877L24.1547 84.8881L24.2517 84.9398L24.3485 84.9933C27.5938 86.7868 31.028 88.2919 34.6659 89.5045L34.815 89.5542L34.9631 89.6071C39.6815 91.2922 44.0754 93.0017 48.1301 94.7395C48.5831 94.9336 49.0331 95.1316 49.48 95.3338Z" fill="url(#paint0_linear)"/>
<defs>
<linearGradient id="paint0_linear" x1="69.1714" y1="-5.99752" x2="12.036" y2="177.158" gradientUnits="userSpaceOnUse">
<stop stop-color="#FECB47"/>
<stop offset="0.208333" stop-color="#FE4747"/>
<stop offset="0.40625" stop-color="#CE47FE"/>
<stop offset="0.614583" stop-color="#6547FE"/>
<stop offset="0.8125" stop-color="#47FEDD"/>
<stop offset="1" stop-color="#82FE47"/>
</linearGradient>
</defs>
</svg>
